<svg width="53" height="28" viewBox="0 0 53 28" fill="none" xmlns="http://www.w3.org/2000/svg">
<path d="M4.27 6.39C4.15667 6.21 3.99 6.06333 3.77 5.95C3.55667 5.83 3.32333 5.77 3.07 5.77C2.79667 5.77 2.55 5.82 2.33 5.92C2.11 6.01333 1.92 6.14667 1.76 6.32C1.60667 6.48667 1.48667 6.68667 1.4 6.92C1.32 7.14667 1.28 7.39333 1.28 7.66C1.28 7.92667 1.32 8.17333 1.4 8.4C1.48667 8.62667 1.60667 8.82667 1.76 9C1.91333 9.16667 2.1 9.3 2.32 9.4C2.54 9.49333 2.78667 9.54 3.06 9.54C3.36 9.54 3.61333 9.48333 3.82 9.37C4.02667 9.25667 4.19667 9.11 4.33 8.93L4.84 9.31C4.64 9.55667 4.39333 9.75333 4.1 9.9C3.81333 10.0467 3.46667 10.12 3.06 10.12C2.68 10.12 2.33667 10.06 2.03 9.94C1.72333 9.81333 1.46 9.64 1.24 9.42C1.02667 9.2 0.859998 8.94 0.739998 8.64C0.619998 8.34 0.559998 8.01333 0.559998 7.66C0.559998 7.30667 0.619998 6.98 0.739998 6.68C0.859998 6.38 1.02667 6.12 1.24 5.9C1.46 5.68 1.72333 5.51 2.03 5.39C2.33667 5.26333 2.68 5.2 3.06 5.2C3.37333 5.2 3.69 5.27 4.01 5.41C4.33667 5.54333 4.6 5.74333 4.8 6.01L4.27 6.39ZM10.55 7.66C10.55 8.01333 10.4867 8.34 10.36 8.64C10.24 8.94 10.07 9.2 9.85 9.42C9.63 9.64 9.36667 9.81333 9.06 9.94C8.75333 10.06 8.41667 10.12 8.05 10.12C7.69 10.12 7.35667 10.06 7.05 9.94C6.74333 9.81333 6.48 9.64 6.26 9.42C6.04 9.2 5.86667 8.94 5.74 8.64C5.62 8.34 5.56 8.01333 5.56 7.66C5.56 7.30667 5.62 6.98 5.74 6.68C5.86667 6.38 6.04 6.12 6.26 5.9C6.48 5.68 6.74333 5.51 7.05 5.39C7.35667 5.26333 7.69 5.2 8.05 5.2C8.41667 5.2 8.75333 5.26333 9.06 5.39C9.36667 5.51 9.63 5.68 9.85 5.9C10.07 6.12 10.24 6.38 10.36 6.68C10.4867 6.98 10.55 7.30667 10.55 7.66ZM9.83 7.66C9.83 7.4 9.78667 7.15667 9.7 6.93C9.62 6.69667 9.50333 6.49667 9.35 6.33C9.19667 6.15667 9.01 6.02 8.79 5.92C8.57 5.82 8.32333 5.77 8.05 5.77C7.77667 5.77 7.53 5.82 7.31 5.92C7.09667 6.02 6.91333 6.15667 6.76 6.33C6.60667 6.49667 6.48667 6.69667 6.4 6.93C6.32 7.15667 6.28 7.4 6.28 7.66C6.28 7.92 6.32 8.16667 6.4 8.4C6.48667 8.62667 6.60667 8.82667 6.76 9C6.91333 9.16667 7.09667 9.3 7.31 9.4C7.53 9.49333 7.77667 9.54 8.05 9.54C8.32333 9.54 8.57 9.49333 8.79 9.4C9.01 9.3 9.19667 9.16667 9.35 9C9.50333 8.82667 9.62 8.62667 9.7 8.4C9.78667 8.16667 9.83 7.92 9.83 7.66ZM12.7133 10H12.0333V2.44H12.7133V10ZM15.2328 10H14.5528V2.44H15.2328V10ZM20.6223 7.3C20.6023 6.86 20.459 6.49667 20.1923 6.21C19.9323 5.91667 19.559 5.77 19.0723 5.77C18.8457 5.77 18.6357 5.81333 18.4423 5.9C18.249 5.98 18.079 6.09333 17.9323 6.24C17.7857 6.38 17.669 6.54333 17.5823 6.73C17.4957 6.91 17.4457 7.1 17.4323 7.3H20.6223ZM21.3123 7.52C21.3123 7.56667 21.3123 7.61667 21.3123 7.67C21.3123 7.72333 21.309 7.78 21.3023 7.84H17.4223C17.429 8.07333 17.4757 8.29333 17.5623 8.5C17.649 8.70667 17.769 8.88667 17.9223 9.04C18.0757 9.19333 18.2557 9.31667 18.4623 9.41C18.669 9.49667 18.8923 9.54 19.1323 9.54C19.4857 9.54 19.789 9.46 20.0423 9.3C20.3023 9.13333 20.499 8.94333 20.6323 8.73L21.1423 9.13C20.8623 9.48333 20.5523 9.73667 20.2123 9.89C19.879 10.0433 19.519 10.12 19.1323 10.12C18.7857 10.12 18.4623 10.06 18.1623 9.94C17.869 9.81333 17.6157 9.64 17.4023 9.42C17.189 9.2 17.019 8.94 16.8923 8.64C16.7723 8.34 16.7123 8.01333 16.7123 7.66C16.7123 7.30667 16.7723 6.98 16.8923 6.68C17.0123 6.38 17.179 6.12 17.3923 5.9C17.6057 5.68 17.8557 5.51 18.1423 5.39C18.429 5.26333 18.739 5.2 19.0723 5.2C19.439 5.2 19.7623 5.26333 20.0423 5.39C20.3223 5.51 20.5557 5.67667 20.7423 5.89C20.929 6.09667 21.069 6.34 21.1623 6.62C21.2623 6.9 21.3123 7.2 21.3123 7.52ZM26.145 6.39C26.0317 6.21 25.865 6.06333 25.645 5.95C25.4317 5.83 25.1983 5.77 24.945 5.77C24.6717 5.77 24.425 5.82 24.205 5.92C23.985 6.01333 23.795 6.14667 23.635 6.32C23.4817 6.48667 23.3617 6.68667 23.275 6.92C23.195 7.14667 23.155 7.39333 23.155 7.66C23.155 7.92667 23.195 8.17333 23.275 8.4C23.3617 8.62667 23.4817 8.82667 23.635 9C23.7883 9.16667 23.975 9.3 24.195 9.4C24.415 9.49333 24.6617 9.54 24.935 9.54C25.235 9.54 25.4883 9.48333 25.695 9.37C25.9017 9.25667 26.0717 9.11 26.205 8.93L26.715 9.31C26.515 9.55667 26.2683 9.75333 25.975 9.9C25.6883 10.0467 25.3417 10.12 24.935 10.12C24.555 10.12 24.2117 10.06 23.905 9.94C23.5983 9.81333 23.335 9.64 23.115 9.42C22.9017 9.2 22.735 8.94 22.615 8.64C22.495 8.34 22.435 8.01333 22.435 7.66C22.435 7.30667 22.495 6.98 22.615 6.68C22.735 6.38 22.9017 6.12 23.115 5.9C23.335 5.68 23.5983 5.51 23.905 5.39C24.2117 5.26333 24.555 5.2 24.935 5.2C25.2483 5.2 25.565 5.27 25.885 5.41C26.2117 5.54333 26.475 5.74333 26.675 6.01L26.145 6.39ZM29.885 5.89H28.565V8.62C28.565 8.79333 28.5817 8.93667 28.615 9.05C28.6483 9.16333 28.695 9.25333 28.755 9.32C28.8217 9.38 28.8983 9.42333 28.985 9.45C29.0717 9.47 29.165 9.48 29.265 9.48C29.3583 9.48 29.455 9.46667 29.555 9.44C29.6617 9.41333 29.7617 9.37667 29.855 9.33L29.885 9.92C29.765 9.96667 29.6383 10 29.505 10.02C29.3783 10.0467 29.2383 10.06 29.085 10.06C28.9583 10.06 28.825 10.0433 28.685 10.01C28.545 9.97667 28.415 9.91333 28.295 9.82C28.175 9.72667 28.075 9.6 27.995 9.44C27.9217 9.28 27.885 9.07 27.885 8.81V5.89H26.915V5.32H27.885V4H28.565V5.32H29.885V5.89ZM31.6388 10H30.9588V5.32H31.6388V10ZM31.7788 3.52C31.7788 3.66 31.7288 3.77667 31.6288 3.87C31.5288 3.95667 31.4188 4 31.2988 4C31.1788 4 31.0688 3.95667 30.9688 3.87C30.8688 3.77667 30.8188 3.66 30.8188 3.52C30.8188 3.38 30.8688 3.26667 30.9688 3.18C31.0688 3.08667 31.1788 3.04 31.2988 3.04C31.4188 3.04 31.5288 3.08667 31.6288 3.18C31.7288 3.26667 31.7788 3.38 31.7788 3.52ZM38.0988 7.66C38.0988 8.01333 38.0355 8.34 37.9088 8.64C37.7888 8.94 37.6188 9.2 37.3988 9.42C37.1788 9.64 36.9155 9.81333 36.6088 9.94C36.3022 10.06 35.9655 10.12 35.5988 10.12C35.2388 10.12 34.9055 10.06 34.5988 9.94C34.2922 9.81333 34.0288 9.64 33.8088 9.42C33.5888 9.2 33.4155 8.94 33.2888 8.64C33.1688 8.34 33.1088 8.01333 33.1088 7.66C33.1088 7.30667 33.1688 6.98 33.2888 6.68C33.4155 6.38 33.5888 6.12 33.8088 5.9C34.0288 5.68 34.2922 5.51 34.5988 5.39C34.9055 5.26333 35.2388 5.2 35.5988 5.2C35.9655 5.2 36.3022 5.26333 36.6088 5.39C36.9155 5.51 37.1788 5.68 37.3988 5.9C37.6188 6.12 37.7888 6.38 37.9088 6.68C38.0355 6.98 38.0988 7.30667 38.0988 7.66ZM37.3788 7.66C37.3788 7.4 37.3355 7.15667 37.2488 6.93C37.1688 6.69667 37.0522 6.49667 36.8988 6.33C36.7455 6.15667 36.5588 6.02 36.3388 5.92C36.1188 5.82 35.8722 5.77 35.5988 5.77C35.3255 5.77 35.0788 5.82 34.8588 5.92C34.6455 6.02 34.4622 6.15667 34.3088 6.33C34.1555 6.49667 34.0355 6.69667 33.9488 6.93C33.8688 7.15667 33.8288 7.4 33.8288 7.66C33.8288 7.92 33.8688 8.16667 33.9488 8.4C34.0355 8.62667 34.1555 8.82667 34.3088 9C34.4622 9.16667 34.6455 9.3 34.8588 9.4C35.0788 9.49333 35.3255 9.54 35.5988 9.54C35.8722 9.54 36.1188 9.49333 36.3388 9.4C36.5588 9.3 36.7455 9.16667 36.8988 9C37.0522 8.82667 37.1688 8.62667 37.2488 8.4C37.3355 8.16667 37.3788 7.92 37.3788 7.66ZM40.1721 5.32C40.1854 5.44667 40.1954 5.58667 40.2021 5.74C40.2088 5.89333 40.2121 6.02 40.2121 6.12H40.2321C40.3654 5.84667 40.5821 5.62667 40.8821 5.46C41.1821 5.28667 41.4988 5.2 41.8321 5.2C42.4254 5.2 42.8688 5.37667 43.1621 5.73C43.4621 6.08333 43.6121 6.55 43.6121 7.13V10H42.9321V7.41C42.9321 7.16333 42.9121 6.94 42.8721 6.74C42.8321 6.54 42.7621 6.37 42.6621 6.23C42.5688 6.08333 42.4388 5.97 42.2721 5.89C42.1121 5.81 41.9088 5.77 41.6621 5.77C41.4821 5.77 41.3054 5.80667 41.1321 5.88C40.9654 5.95333 40.8154 6.06667 40.6821 6.22C40.5488 6.36667 40.4421 6.55667 40.3621 6.79C40.2821 7.01667 40.2421 7.28667 40.2421 7.6V10H39.5621V6.35C39.5621 6.22333 39.5588 6.06 39.5521 5.86C39.5454 5.66 39.5354 5.48 39.5221 5.32H40.1721Z" fill="black"/>
<path d="M28.75 21.21C28.55 21.51 28.29 21.7367 27.97 21.89C27.65 22.0433 27.32 22.12 26.98 22.12C26.6133 22.12 26.28 22.0567 25.98 21.93C25.6867 21.8033 25.4333 21.63 25.22 21.41C25.0133 21.19 24.85 20.93 24.73 20.63C24.6167 20.33 24.56 20.0067 24.56 19.66C24.56 19.3133 24.6167 18.99 24.73 18.69C24.85 18.39 25.0133 18.13 25.22 17.91C25.4333 17.69 25.6867 17.5167 25.98 17.39C26.28 17.2633 26.6133 17.2 26.98 17.2C27.32 17.2 27.65 17.28 27.97 17.44C28.29 17.5933 28.55 17.8233 28.75 18.13H28.77V14.44H29.45V22H28.77V21.21H28.75ZM25.28 19.66C25.28 19.92 25.32 20.1667 25.4 20.4C25.48 20.6267 25.5933 20.8267 25.74 21C25.8933 21.1667 26.08 21.3 26.3 21.4C26.52 21.4933 26.77 21.54 27.05 21.54C27.31 21.54 27.55 21.4933 27.77 21.4C27.99 21.3 28.18 21.1667 28.34 21C28.5 20.8333 28.6233 20.6367 28.71 20.41C28.8033 20.1767 28.85 19.9267 28.85 19.66C28.85 19.3933 28.8033 19.1467 28.71 18.92C28.6233 18.6867 28.5 18.4867 28.34 18.32C28.18 18.1467 27.99 18.0133 27.77 17.92C27.55 17.82 27.31 17.77 27.05 17.77C26.77 17.77 26.52 17.82 26.3 17.92C26.08 18.02 25.8933 18.1567 25.74 18.33C25.5933 18.4967 25.48 18.6967 25.4 18.93C25.32 19.1567 25.28 19.4 25.28 19.66ZM31.9572 22H31.2772V17.32H31.9572V22ZM32.0972 15.52C32.0972 15.66 32.0472 15.7767 31.9472 15.87C31.8472 15.9567 31.7372 16 31.6172 16C31.4972 16 31.3872 15.9567 31.2872 15.87C31.1872 15.7767 31.1372 15.66 31.1372 15.52C31.1372 15.38 31.1872 15.2667 31.2872 15.18C31.3872 15.0867 31.4972 15.04 31.6172 15.04C31.7372 15.04 31.8472 15.0867 31.9472 15.18C32.0472 15.2667 32.0972 15.38 32.0972 15.52ZM34.0172 22.94C34.2039 23.18 34.4572 23.3833 34.7772 23.55C35.1039 23.7167 35.4472 23.8 35.8072 23.8C36.1405 23.8 36.4239 23.75 36.6572 23.65C36.8905 23.5567 37.0772 23.4267 37.2172 23.26C37.3639 23.0933 37.4705 22.8967 37.5372 22.67C37.6039 22.45 37.6372 22.2133 37.6372 21.96V21.08H37.6172C37.4372 21.3733 37.1805 21.6 36.8472 21.76C36.5205 21.92 36.1872 22 35.8472 22C35.4805 22 35.1472 21.94 34.8472 21.82C34.5539 21.7 34.3005 21.5367 34.0872 21.33C33.8805 21.1167 33.7172 20.8633 33.5972 20.57C33.4839 20.2767 33.4272 19.96 33.4272 19.62C33.4272 19.2867 33.4839 18.9733 33.5972 18.68C33.7172 18.3867 33.8805 18.13 34.0872 17.91C34.3005 17.69 34.5539 17.5167 34.8472 17.39C35.1472 17.2633 35.4805 17.2 35.8472 17.2C36.1872 17.2 36.5205 17.28 36.8472 17.44C37.1739 17.6 37.4305 17.83 37.6172 18.13H37.6372V17.32H38.3172V21.96C38.3172 22.2133 38.2805 22.4833 38.2072 22.77C38.1405 23.0567 38.0105 23.32 37.8172 23.56C37.6305 23.8 37.3739 24 37.0472 24.16C36.7205 24.32 36.2972 24.4 35.7772 24.4C35.3439 24.4 34.9305 24.3167 34.5372 24.15C34.1439 23.9833 33.8072 23.7533 33.5272 23.46L34.0172 22.94ZM34.1472 19.6C34.1472 19.8467 34.1872 20.08 34.2672 20.3C34.3472 20.52 34.4605 20.7133 34.6072 20.88C34.7605 21.0467 34.9472 21.18 35.1672 21.28C35.3872 21.3733 35.6372 21.42 35.9172 21.42C36.1772 21.42 36.4172 21.3767 36.6372 21.29C36.8572 21.2033 37.0472 21.08 37.2072 20.92C37.3672 20.76 37.4905 20.57 37.5772 20.35C37.6705 20.1233 37.7172 19.8733 37.7172 19.6C37.7172 19.3533 37.6705 19.12 37.5772 18.9C37.4905 18.68 37.3672 18.4867 37.2072 18.32C37.0472 18.1533 36.8572 18.02 36.6372 17.92C36.4172 17.82 36.1772 17.77 35.9172 17.77C35.6372 17.77 35.3872 17.82 35.1672 17.92C34.9472 18.02 34.7605 18.1533 34.6072 18.32C34.4605 18.4867 34.3472 18.68 34.2672 18.9C34.1872 19.12 34.1472 19.3533 34.1472 19.6ZM40.7755 22H40.0955V17.32H40.7755V22ZM40.9155 15.52C40.9155 15.66 40.8655 15.7767 40.7655 15.87C40.6655 15.9567 40.5555 16 40.4355 16C40.3155 16 40.2055 15.9567 40.1055 15.87C40.0055 15.7767 39.9555 15.66 39.9555 15.52C39.9555 15.38 40.0055 15.2667 40.1055 15.18C40.2055 15.0867 40.3155 15.04 40.4355 15.04C40.5555 15.04 40.6655 15.0867 40.7655 15.18C40.8655 15.2667 40.9155 15.38 40.9155 15.52ZM44.6955 17.89H43.3755V20.62C43.3755 20.7933 43.3922 20.9367 43.4255 21.05C43.4589 21.1633 43.5055 21.2533 43.5655 21.32C43.6322 21.38 43.7089 21.4233 43.7955 21.45C43.8822 21.47 43.9755 21.48 44.0755 21.48C44.1689 21.48 44.2655 21.4667 44.3655 21.44C44.4722 21.4133 44.5722 21.3767 44.6655 21.33L44.6955 21.92C44.5755 21.9667 44.4489 22 44.3155 22.02C44.1889 22.0467 44.0489 22.06 43.8955 22.06C43.7689 22.06 43.6355 22.0433 43.4955 22.01C43.3555 21.9767 43.2255 21.9133 43.1055 21.82C42.9855 21.7267 42.8855 21.6 42.8055 21.44C42.7322 21.28 42.6955 21.07 42.6955 20.81V17.89H41.7255V17.32H42.6955V16H43.3755V17.32H44.6955V17.89ZM48.7094 18.98C48.7094 18.5733 48.6027 18.27 48.3894 18.07C48.176 17.87 47.866 17.77 47.4594 17.77C47.1794 17.77 46.9194 17.82 46.6794 17.92C46.4394 18.02 46.236 18.1533 46.0694 18.32L45.6894 17.87C45.8827 17.6767 46.136 17.5167 46.4494 17.39C46.7694 17.2633 47.1294 17.2 47.5294 17.2C47.7827 17.2 48.0194 17.2367 48.2394 17.31C48.4594 17.3767 48.6527 17.48 48.8194 17.62C48.986 17.76 49.116 17.9367 49.2094 18.15C49.3027 18.3633 49.3494 18.6133 49.3494 18.9V20.95C49.3494 21.13 49.356 21.3167 49.3694 21.51C49.3827 21.7033 49.4027 21.8667 49.4294 22H48.8194C48.7994 21.8867 48.7827 21.7633 48.7694 21.63C48.756 21.4967 48.7494 21.3667 48.7494 21.24H48.7294C48.516 21.5533 48.2727 21.78 47.9994 21.92C47.7327 22.0533 47.4094 22.12 47.0294 22.12C46.8494 22.12 46.6627 22.0933 46.4694 22.04C46.2827 21.9933 46.1094 21.9133 45.9494 21.8C45.796 21.6867 45.666 21.54 45.5594 21.36C45.4594 21.18 45.4094 20.96 45.4094 20.7C45.4094 20.34 45.4994 20.0567 45.6794 19.85C45.866 19.6367 46.1127 19.48 46.4194 19.38C46.726 19.2733 47.076 19.2067 47.4694 19.18C47.8694 19.1467 48.2827 19.13 48.7094 19.13V18.98ZM48.5094 19.66C48.2294 19.66 47.946 19.6733 47.6594 19.7C47.3794 19.72 47.1227 19.7667 46.8894 19.84C46.6627 19.9067 46.476 20.0067 46.3294 20.14C46.1827 20.2733 46.1094 20.45 46.1094 20.67C46.1094 20.8367 46.1394 20.9767 46.1994 21.09C46.266 21.2033 46.3527 21.2967 46.4594 21.37C46.566 21.4367 46.6827 21.4867 46.8094 21.52C46.9427 21.5467 47.076 21.56 47.2094 21.56C47.4494 21.56 47.6627 21.52 47.8494 21.44C48.036 21.3533 48.1927 21.24 48.3194 21.1C48.446 20.9533 48.5427 20.7867 48.6094 20.6C48.676 20.4133 48.7094 20.2167 48.7094 20.01V19.66H48.5094ZM51.8012 22H51.1212V14.44H51.8012V22Z" fill="black"/>
<path d="M33 0H30V28H33V0Z" fill="#D9D9D9"/>
<path d="M32 0H31V28H32V0Z" fill="black"/>
</svg>
